# xmcd CD database file
#
# Track frame offsets:
#	150
#	14776
#	30082
#	49849
#	70489
#	83324
#	95545
#	121225
#	131245
#	156127
#	174237
#	192617
#
# Disc length: 2773 seconds
#
# Revision: 0
# Processed by: cddbd v1.5.1PL2 Copyright (c) Steve Scherf et al.
# Submitted via: CDex 1.51
#
DISCID=9a0ad30c
DTITLE=Blues Brews Barbeques - Volume 1
DYEAR=2002
DGENRE=Blues
TTITLE0=Lil' Ed and the Blues Imperials - Chicken Gravy and Biscuits
TTITLE1=James Anthony - House Ain't No Home
TTITLE2=Mel Brown - Woke Up This Morning
TTITLE3=Brent Parkin - Huckle Boogie
TTITLE4=Steve Burnside and the Marquis - Something You Got
TTITLE5=John Riggi and J.A.B - Don't Hold Your Breath
TTITLE6=Waterstreet Blues Band - Evening
TTITLE7=Daddy Long Legs - Last Minute
TTITLE8=Jackie Washington with Mose Scarlett and Ken Whitely - If I Had A Girl Like You - Your Feets Too Big
TTITLE9=Reverb Rockers - Owed To Son - Make Me Wanna Rock
TTITLE10=Bluesynergy - Blues Noir
TTITLE11=B3 Shufflers - Blues Brews and Barbeques
EXTD=YEAR: 2002
EXTT0=
EXTT1=
EXTT2=
EXTT3=
EXTT4=
EXTT5=
EXTT6=
EXTT7=
EXTT8=
EXTT9=
EXTT10=
EXTT11=
PLAYORDER=
